#!OML:ASF H:\Dans Jumps\Project 1\Capture day 1\Session 1\subject.ASF
:FULLY-SPECIFIED
:DEGREES
365
root 1.23798 17.5491 11.911 2.82991 5.98814 -3.30506
lowerback -1.14801 -0.0712286 2.01836
upperback 0.476127 -0.153221 2.56816
thorax 1.13351 -0.0707182 1.49761
lowerneck -12.8046 -1.02362 -2.49354
upperneck 16.3825 -1.10254 1.18406
head 7.15003 -0.574244 0.687227
rclavicle -1.29707e-014 -1.59028e-014
rhumerus -24.8965 -25.9886 -75.9153
rradius 19.7255
rwrist 50.2644
rhand -24.3039 -26.3404
rfingers 7.12502
rthumb 2.18387 -56.3089
lclavicle -1.29707e-014 -1.59028e-014
lhumerus -22.5018 -0.878598 85.3879
lradius 22.0112
lwrist 7.59308
lhand -25.6041 -9.05466
lfingers 7.12502
lthumb 0.928161 20.9231
rfemur -14.5409 -3.01364 21.6167
rtibia 23.9225
rfoot -11.9261 -1.40068
rtoes 13.884
lfemur -13.0384 4.21913 -15.8538
ltibia 24.7435
lfoot -12.7703 3.35943
ltoes -15.1271
366
root 1.23261 17.5592 11.9618 2.97258 5.98125 -3.27068
lowerback -1.27213 -0.0491205 1.93628
upperback 0.413035 -0.124464 2.51804
thorax 1.13814 -0.0568377 1.49261
lowerneck -12.8396 -1.03992 -2.48346
upperneck 16.2138 -1.12567 1.18644
head 7.10182 -0.5839 0.683755
rclavicle 1.52816e-014 -3.18055e-015
rhumerus -24.9768 -27.0364 -75.6521
rradius 19.3937
rwrist 51.0735
rhand -24.225 -26.334
rfingers 7.12502
rthumb 2.26001 -56.3018
lclavicle 1.52816e-014 -3.18055e-015
lhumerus -22.5969 0.801788 84.7094
lradius 21.0705
lwrist 6.48794
lhand -25.7486 -8.97414
lfingers 7.12502
lthumb 0.788519 21.0042
rfemur -14.3691 -3.0542 21.6222
rtibia 23.6554
rfoot -11.9468 -1.35986
rtoes 13.863
lfemur -12.851 4.33226 -15.8842
ltibia 24.443
lfoot -12.6476 3.38863
ltoes -15.036
367
root 1.22725 17.5686 12.0129 3.11699 5.96141 -3.24065
lowerback -1.41623 -0.0288591 1.86286
upperback 0.347852 -0.098779 2.46777
thorax 1.15184 -0.044382 1.48262
lowerneck -12.8779 -1.05017 -2.4672
upperneck 16.0816 -1.14079 1.18298
head 7.06578 -0.589983 0.678203
rclavicle -1.87852e-014 1.59028e-015
rhumerus -25.0756 -27.8743 -75.4712
rradius 19.17
rwrist 51.6332
rhand -24.1582 -26.3261
rfingers 7.12502
rthumb 2.32462 -56.2932
lclavicle -1.87852e-014 1.59028e-015
lhumerus -22.7241 2.5397 83.9873
lradius 20.1161
lwrist 5.31332
lhand -25.8598 -8.93572
lfingers 7.12502
lthumb 0.681116 21.0429
rfemur -14.2081 -3.06504 21.6327
rtibia 23.407
rfoot -11.9788 -1.33677
rtoes 13.8499
lfemur -12.6756 4.51204 -15.9203
ltibia 24.1585
lfoot -12.5395 3.42192
ltoes -14.8977
368
root 1.22229 17.5776 12.0644 3.26192 5.93907 -3.19555
lowerback -1.57313 -0.0143698 1.78495
upperback 0.279021 -0.0807431 2.41071
thorax 1.16905 -0.0357386 1.46808
lowerneck -12.92 -1.05353 -2.44546
upperneck 15.9867 -1.1472 1.17676
head 7.04234 -0.591912 0.671743
rclavicle -8.49804e-015 1.31198e-014
rhumerus -25.185 -28.4698 -75.3859
rradius 19.0475
rwrist 51.9284
rhand -24.0923 -26.3247
rfingers 7.12502
rthumb 2.38825 -56.2911
lclavicle -8.49804e-015 1.31198e-014
lhumerus -22.8873 4.33885 83.2157
lradius 19.158
lwrist 4.03881
lhand -25.9285 -8.91411
lfingers 7.12502
lthumb 0.614819 21.0647
rfemur -14.0524 -3.07987 21.6241
rtibia 23.1782
rfoot -12.0263 -1.30602
rtoes 13.8499
lfemur -12.5072 4.75589 -15.989
ltibia 23.8872
lfoot -12.4521 3.46172
ltoes -14.6098
369
root 1.21708 17.5858 12.1155 3.40332 5.9098 -3.15296
lowerback -1.73767 -0.00362998 1.7147
upperback 0.211723 -0.0678906 2.35174
thorax 1.19216 -0.0295977 1.44722
lowerneck -12.9662 -1.04686 -2.41238
upperneck 15.921 -1.14113 1.16404
head 7.02871 -0.587825 0.662555
rclavicle 4.99446e-015 -1.23246e-014
rhumerus -25.2893 -28.8098 -75.4103
rradius 19.0207
rwrist 51.961
rhand -24.0666 -26.3046
rfingers 7.12502
rthumb 2.41307 -56.2707
lclavicle 4.99446e-015 -1.23246e-014
lhumerus -23.0722 6.16806 82.3943
lradius 18.1842
lwrist 2.67048
lhand -25.9617 -8.92699
lfingers 7.12502
lthumb 0.582778 21.052
rfemur -13.9029 -3.0631 21.6176
rtibia 22.9658
rfoot -12.0806 -1.29374
rtoes 13.8829
lfemur -12.3473 5.06345 -16.0698
ltibia 23.6257
lfoot -12.3736 3.51823
ltoes -14.1516
370
root 1.21269 17.5939 12.1665 3.54331 5.88499 -3.0996
lowerback -1.91537 0.00027227 1.65062
upperback 0.148177 -0.0645086 2.28711
thorax 1.2266 -0.0280922 1.41691
lowerneck -13.0158 -1.03854 -2.37907
upperneck 15.8719 -1.13234 1.14832
head 7.021 -0.582742 0.652628
rclavicle 4.44781e-015 -1.59028e-014
rhumerus -25.3728 -28.9065 -75.5397
rradius 19.0755
rwrist 51.7868
rhand -24.0533 -26.2728
rfingers 7.12502
rthumb 2.42592 -56.2388
lclavicle 4.44781e-015 -1.59028e-014
lhumerus -23.2833 8.06074 81.52
lradius 17.2094
lwrist 1.15302
lhand -25.9397 -8.95006
lfingers 7.12502
lthumb 0.603964 21.0288
rfemur -13.7575 -3.06611 21.5942
rtibia 22.7699
rfoot -12.144 -1.25976
rtoes 13.94
lfemur -12.1873 5.40929 -16.1819
ltibia 23.366
lfoot -12.2994 3.60484
ltoes -13.5454
371
root 1.20931 17.6019 12.217 3.67881 5.86971 -3.03724
lowerback -2.09141 -0.00533155 1.59531
upperback 0.0857721 -0.0736729 2.21881
thorax 1.26141 -0.0327864 1.37753
lowerneck -13.0804 -1.02361 -2.34432
upperneck 15.8426 -1.11404 1.12958
head 7.02213 -0.573291 0.642394
rclavicle -1.2424e-016 -2.62396e-014
rhumerus -25.4363 -28.7301 -75.7758
rradius 19.2102
rwrist 51.3904
rhand -24.046 -26.237
rfingers 7.12502
rthumb 2.43294 -56.2028
lclavicle -1.2424e-016 -2.62396e-014
lhumerus -23.5265 10.0122 80.592
lradius 16.2399
lwrist -0.520033
lhand -25.8783 -8.91746
lfingers 7.12502
lthumb 0.663274 21.0613
rfemur -13.6125 -3.09853 21.5543
rtibia 22.5854
rfoot -12.2134 -1.19758
rtoes 14.0296
lfemur -12.022 5.76382 -16.3215
ltibia 23.1052
lfoot -12.2236 3.73197
ltoes -12.8195
372
root 1.20684 17.6097 12.2666 3.80768 5.86714 -2.96978
lowerback -2.26701 -0.0182828 1.55254
upperback 0.0283921 -0.0928035 2.14813
thorax 1.30121 -0.0423566 1.32833
lowerneck -13.1557 -1.00248 -2.31099
upperneck 15.8217 -1.0868 1.11065
head 7.02767 -0.559649 0.63319
rclavicle 1.43373e-014 -7.15625e-015
rhumerus -25.4744 -28.3152 -76.1064
rradius 19.4158
rwrist 50.8159
rhand -24.0261 -26.2099
rfingers 7.12502
rthumb 2.45213 -56.1756
lclavicle 1.43373e-014 -7.15625e-015
lhumerus -23.7956 12.0222 79.6127
lradius 15.2839
lwrist -2.36776
lhand -25.7707 -8.86273
lfingers 7.12502
lthumb 0.767177 21.1156
rfemur -13.4666 -3.14801 21.5031
rtibia 22.409
rfoot -12.2827 -1.12352
rtoes 14.1381
lfemur -11.848 6.09583 -16.4785
ltibia 22.8371
lfoot -12.1345 3.90351
ltoes -12.0665
373
root 1.20544 17.6173 12.3155 3.9307 5.87193 -2.90484
lowerback -2.43867 -0.0383522 1.52512
upperback -0.0243406 -0.121692 2.08149
thorax 1.34362 -0.0567045 1.27426
lowerneck -13.2585 -0.978001 -2.29164
upperneck 15.8152 -1.05256 1.09749
head 7.04271 -0.542948 0.628784
rclavicle 1.50331e-015 -2.78299e-015
rhumerus -25.4876 -27.6849 -76.5138
rradius 19.6876
rwrist 50.1066
rhand -23.9846 -26.1874
rfingers 7.12502
rthumb 2.49219 -56.1526
lclavicle 1.50331e-015 -2.78299e-015
lhumerus -24.1095 14.0772 78.5905
lradius 14.3701
lwrist -4.37043
lhand -25.6189 -8.74438
lfingers 7.12502
lthumb 0.913832 21.2334
rfemur -13.3186 -3.22277 21.4489
rtibia 22.2351
rfoot -12.3513 -1.02864
rtoes 14.2311
lfemur -11.6644 6.39242 -16.6406
ltibia 22.5645
lfoot -12.0372 4.11533
ltoes -11.3357
374
root 1.20483 17.6244 12.3632 4.04315 5.89386 -2.84922
lowerback -2.59436 -0.0666098 1.51685
upperback -0.0759563 -0.161544 2.0212
thorax 1.37826 -0.0764416 1.21547
lowerneck -13.3672 -0.946989 -2.27663
upperneck 15.8084 -1.0083 1.08384
head 7.05853 -0.521735 0.625939
rclavicle -1.11816e-016 1.51076e-014
rhumerus -25.4962 -26.8321 -76.9899
rradius 20.0376
rwrist 49.236
rhand -23.9165 -26.1953
rfingers 7.12502
rthumb 2.55796 -56.1597
lclavicle -1.11816e-016 1.51076e-014
lhumerus -24.4807 16.1624 77.5254
lradius 13.5121
lwrist -6.54935
lhand -25.4198 -8.56544
lfingers 7.12502
lthumb 1.10611 21.4114
rfemur -13.1637 -3.31165 21.4012
rtibia 22.0601
rfoot -12.4154 -0.937812
rtoes 14.2995
lfemur -11.4739 6.63586 -16.7941
ltibia 22.2907
lfoot -11.9302 4.35445
ltoes -10.6833
375
root 1.20451 17.6311 12.4099 4.14555 5.92323 -2.81149
lowerback -2.74745 -0.099395 1.52688
upperback -0.120438 -0.208178 1.97198
thorax 1.41871 -0.0994533 1.15739
lowerneck -13.4655 -0.913061 -2.26254
upperneck 15.7791 -0.958547 1.06189
head 7.0651 -0.498666 0.621143
rclavicle 4.09993e-015 0
rhumerus -25.4938 -25.8484 -77.5063
rradius 20.4417
rwrist 48.2906
rhand -23.8641 -26.1964
rfingers 7.12502
rthumb 2.60858 -56.1602
lclavicle 4.09993e-015 0
lhumerus -24.9089 18.2309 76.4325
lradius 12.7182
lwrist -8.86179
lhand -25.1774 -8.35012
lfingers 7.12502
lthumb 1.34026 21.6254
rfemur -13.0024 -3.38317 21.3726
rtibia 21.8806
rfoot -12.4735 -0.876113
rtoes 14.3424
lfemur -11.2821 6.83058 -16.9226
ltibia 22.0233
lfoot -11.8207 4.60717
ltoes -10.1316
376
root 1.20484 17.6371 12.4558 4.23613 5.96599 -2.78982
lowerback -2.89203 -0.137697 1.55437
upperback -0.160334 -0.262741 1.93382
thorax 1.45902 -0.12633 1.10041
lowerneck -13.5438 -0.880354 -2.25299
upperneck 15.7198 -0.909057 1.03531
head 7.05849 -0.476389 0.615618
rclavicle -1.71079e-014 -3.97569e-016
rhumerus -25.4963 -24.7713 -78.0389
rradius 20.8944
rwrist 47.2986
rhand -23.8102 -26.192
rfingers 7.12502
rthumb 2.66065 -56.1551
lclavicle -1.71079e-014 -3.97569e-016
lhumerus -25.4068 20.2425 75.328
lradius 12.0145
lwrist -11.2793
lhand -24.8846 -8.09121
lfingers 7.12502
lthumb 1.62298 21.8824
rfemur -12.8298 -3.46644 21.3601
rtibia 21.6963
rfoot -12.5297 -0.824885
rtoes 14.3526
lfemur -11.0875 6.97709 -17.0257
ltibia 21.7678
lfoot -11.7274 4.85341
ltoes -9.65829
